<svg width="32" height="32" viewBox="0 0 32 32" fill="none" xmlns="http://www.w3.org/2000/svg">
<path d="M0 32V7.11111H7.11111V0H24.8889V14.2222H32V32H17.7778V24.8889H14.2222V32H0ZM3.55556 28.4444H7.11111V24.8889H3.55556V28.4444ZM3.55556 21.3333H7.11111V17.7778H3.55556V21.3333ZM3.55556 14.2222H7.11111V10.6667H3.55556V14.2222ZM10.6667 21.3333H14.2222V17.7778H10.6667V21.3333ZM10.6667 14.2222H14.2222V10.6667H10.6667V14.2222ZM10.6667 7.11111H14.2222V3.55556H10.6667V7.11111ZM17.7778 21.3333H21.3333V17.7778H17.7778V21.3333ZM17.7778 14.2222H21.3333V10.6667H17.7778V14.2222ZM17.7778 7.11111H21.3333V3.55556H17.7778V7.11111ZM24.8889 28.4444H28.4444V24.8889H24.8889V28.4444ZM24.8889 21.3333H28.4444V17.7778H24.8889V21.3333Z" fill="#428DFF"/>
</svg>
