<svg width="22" height="28" viewBox="0 0 22 28" fill="none" xmlns="http://www.w3.org/2000/svg">
<path d="M10.925 13.925C11.6526 13.925 12.2755 13.6659 12.7936 13.1478C13.3118 12.6296 13.5708 12.0068 13.5708 11.2792C13.5708 10.5516 13.3118 9.92869 12.7936 9.41054C12.2755 8.8924 11.6526 8.63333 10.925 8.63333C10.1974 8.63333 9.57453 8.8924 9.05639 9.41054C8.53825 9.92869 8.27918 10.5516 8.27918 11.2792C8.27918 12.0068 8.53825 12.6296 9.05639 13.1478C9.57453 13.6659 10.1974 13.925 10.925 13.925ZM10.925 23.6484C13.6149 21.179 15.6103 18.9355 16.9112 16.9181C18.2121 14.9006 18.8625 13.1092 18.8625 11.5437C18.8625 9.14045 18.0963 7.17261 16.5639 5.64023C15.0316 4.10785 13.1519 3.34166 10.925 3.34166C8.6981 3.34166 6.81845 4.10785 5.28608 5.64023C3.7537 7.17261 2.98751 9.14045 2.98751 11.5437C2.98751 13.1092 3.63794 14.9006 4.93881 16.9181C6.23968 18.9355 8.23508 21.179 10.925 23.6484ZM10.925 27.1542C7.37518 24.1335 4.72384 21.3278 2.97097 18.7371C1.21811 16.1464 0.341675 13.7486 0.341675 11.5437C0.341675 8.23646 1.40552 5.60165 3.53321 3.63932C5.6609 1.67699 8.12484 0.695831 10.925 0.695831C13.7252 0.695831 16.1891 1.67699 18.3168 3.63932C20.4445 5.60165 21.5083 8.23646 21.5083 11.5437C21.5083 13.7486 20.6319 16.1464 18.879 18.7371C17.1262 21.3278 14.4748 24.1335 10.925 27.1542Z" fill="white" fill-opacity="0.86"/>
</svg>
