<svg width="22" height="28" viewBox="0 0 22 28" fill="none" xmlns="http://www.w3.org/2000/svg">
<path d="M10.875 13.875C11.6026 13.875 12.2255 13.6159 12.7436 13.0978C13.2618 12.5796 13.5209 11.9568 13.5209 11.2292C13.5209 10.5016 13.2618 9.87869 12.7436 9.36055C12.2255 8.84241 11.6026 8.58334 10.875 8.58334C10.1474 8.58334 9.52454 8.84241 9.0064 9.36055C8.48826 9.87869 8.22919 10.5016 8.22919 11.2292C8.22919 11.9568 8.48826 12.5796 9.0064 13.0978C9.52454 13.6159 10.1474 13.875 10.875 13.875ZM10.875 23.5984C13.565 21.129 15.5604 18.8855 16.8612 16.8681C18.1621 14.8507 18.8125 13.0592 18.8125 11.4938C18.8125 9.09045 18.0463 7.12261 16.514 5.59024C14.9816 4.05786 13.1019 3.29167 10.875 3.29167C8.64811 3.29167 6.76847 4.05786 5.23609 5.59024C3.70371 7.12261 2.93752 9.09045 2.93752 11.4938C2.93752 13.0592 3.58795 14.8507 4.88882 16.8681C6.18969 18.8855 8.18509 21.129 10.875 23.5984ZM10.875 27.1042C7.32519 24.0835 4.67385 21.2778 2.92098 18.6871C1.16812 16.0964 0.291687 13.6986 0.291687 11.4938C0.291687 8.18646 1.35553 5.55165 3.48322 3.58933C5.61091 1.627 8.07485 0.645836 10.875 0.645836C13.6752 0.645836 16.1391 1.627 18.2668 3.58933C20.3945 5.55165 21.4584 8.18646 21.4584 11.4938C21.4584 13.6986 20.5819 16.0964 18.8291 18.6871C17.0762 21.2778 14.4248 24.0835 10.875 27.1042Z" fill="#7FACFA"/>
</svg>
